<svg xmlns="http://www.w3.org/2000/svg" xmlns:xlink="http://www.w3.org/1999/xlink" width="382" height="444"><defs><linearGradient id="A" x1="15.378%" x2="122.864%" y1="53.988%" y2="28.876%"><stop offset="0%" stop-color="#EAA9C4"/><stop offset="100%" stop-color="#C42E6C" stop-opacity="0"/></linearGradient><linearGradient id="a" x1="50%" x2="50%" y1="11.341%" y2="100%"><stop offset="0%" stop-color="#EAA9C4"/><stop offset="100%" stop-color="#C42E6C" stop-opacity="0"/></linearGradient><linearGradient id="g" x1="50%" x2="50%" y1="11.341%" y2="100%"><stop offset="0%" stop-color="#EAA9C4"/><stop offset="100%" stop-color="#C42E6C" stop-opacity="0"/></linearGradient><linearGradient id="j" x1="50%" x2="50%" y1="11.341%" y2="100%"><stop offset="0%" stop-color="#E673A2"/><stop offset="100%" stop-color="#C00D57" stop-opacity="0"/></linearGradient><linearGradient id="ai" x1="91.619%" x2="39.267%" y1="77.566%" y2="50%"><stop offset="0%" stop-color="#F878B2" stop-opacity="0"/><stop offset="100%" stop-color="#EF437A"/></linearGradient><linearGradient id="m" x1="15.378%" x2="122.864%" y1="53.988%" y2="28.876%"><stop offset="0%" stop-color="#EAA9C4"/><stop offset="100%" stop-color="#C42E6C" stop-opacity="0"/></linearGradient><linearGradient id="af" x1="74.488%" x2="0%" y1="89.582%" y2="0%"><stop offset="0%" stop-color="#FB3B78"/><stop offset="100%" stop-color="#EFC7D8"/></linearGradient><linearGradient id="n" x1="50%" x2="50%" y1="11.341%" y2="100%"><stop offset="0%" stop-color="#EAA9C4"/><stop offset="100%" stop-color="#C42E6C" stop-opacity="0"/></linearGradient><linearGradient id="o" x1="50%" x2="50%" y1="11.341%" y2="100%"><stop offset="0%" stop-color="#E673A2"/><stop offset="100%" stop-color="#C00D57" stop-opacity="0"/></linearGradient><linearGradient id="r" x1="15.378%" x2="122.864%" y1="54.512%" y2="26.101%"><stop offset="0%" stop-color="#EAA9C4"/><stop offset="100%" stop-color="#C42E6C" stop-opacity="0"/></linearGradient><linearGradient id="ae" x1="146.536%" x2="11.386%" y1="68.157%" y2="41.117%"><stop offset="0%" stop-color="#F4487D" stop-opacity=".16"/><stop offset="100%" stop-color="#FF7EA7"/></linearGradient><linearGradient id="u" x1="50%" x2="50%" y1="11.341%" y2="100%"><stop offset="0%" stop-color="#FFF"/><stop offset="100%" stop-color="#C42E6C" stop-opacity="0"/></linearGradient><linearGradient id="x" x1="50%" x2="50%" y1="11.341%" y2="100%"><stop offset="0%" stop-color="#E673A2"/><stop offset="100%" stop-color="#C00D57" stop-opacity="0"/></linearGradient><linearGradient id="ad" x1="50.131%" x2="49.869%" y1="90.32%" y2="-9.568%"><stop offset="0%" stop-color="#F878B2" stop-opacity="0"/><stop offset="100%" stop-color="#EF437A"/></linearGradient><linearGradient id="aj" x1="49.34%" x2="50.436%" y1="-98.276%" y2="100%"><stop offset="0%" stop-color="#1F2C43" stop-opacity=".045"/><stop offset="100%" stop-color="#040507"/></linearGradient><linearGradient id="aa" x1="3.43%" x2="61.772%" y1="0%" y2="79.159%"><stop offset="0%" stop-color="#844377"/><stop offset="100%" stop-color="#203454"/></linearGradient><linearGradient id="Z" x1=".068%" x2="62.622%" y1="-19.149%" y2="79.159%"><stop offset="0%" stop-color="#2E4468"/><stop offset="100%" stop-color="#132138"/></linearGradient><linearGradient id="D" x1="87.079%" x2="11.386%" y1="50.005%" y2="49.992%"><stop offset="0%" stop-color="#FF7EA7"/><stop offset="100%" stop-color="#F4487D" stop-opacity=".16"/></linearGradient><linearGradient id="Y" x1="0%" x2="62.639%" y1="-10.135%" y2="75.358%"><stop offset="0%" stop-color="#563050"/><stop offset="100%" stop-color="#203454"/></linearGradient><linearGradient id="X" x1="0%" x2="62.639%" y1="-6.086%" y2="73.651%"><stop offset="0%" stop-color="#3F213A"/><stop offset="100%" stop-color="#132138"/></linearGradient><linearGradient id="G" x1="30.414%" x2="53.481%" y1="23.662%" y2="66.981%"><stop offset="0%" stop-color="#B9437C"/><stop offset="100%" stop-color="#1A2536"/></linearGradient><linearGradient id="H" x1="5.857%" x2="66.172%" y1="47.575%" y2="27.417%"><stop offset="0%" stop-color="#D45D96" stop-opacity="0"/><stop offset="49.972%" stop-color="#FED2E9"/><stop offset="100%" stop-color="#C42E6C" stop-opacity="0"/></linearGradient><linearGradient id="I" x1="50%" x2="61.569%" y1="6.396%" y2="79.684%"><stop offset="0%" stop-color="#5F80AB"/><stop offset="100%" stop-color="#293F64"/></linearGradient><linearGradient id="J" x1="41.36%" x2="51.535%" y1="0%" y2="82.237%"><stop offset="0%" stop-color="#B9437C"/><stop offset="100%" stop-color="#1A2536"/></linearGradient><linearGradient id="K" x1="30.527%" x2="57.134%" y1="45.397%" y2="7.128%"><stop offset="0%" stop-color="#D45D96" stop-opacity="0"/><stop offset="49.972%" stop-color="#FED2E9"/><stop offset="100%" stop-color="#C42E6C" stop-opacity="0"/></linearGradient><linearGradient id="W" x1="35.032%" x2="61.809%" y1="73.847%" y2="66.342%"><stop offset="0%" stop-color="#82569D" stop-opacity=".769"/><stop offset="100%" stop-color="#1C2D4B"/></linearGradient><linearGradient id="N" x1="50%" x2="55.576%" y1="6.396%" y2="79.159%"><stop offset="0%" stop-color="#FE68AB"/><stop offset="100%" stop-color="#293F64"/></linearGradient><linearGradient id="Q" x1="91.619%" x2="39.267%" y1="51.538%" y2="50%"><stop offset="0%" stop-color="#F878B2" stop-opacity="0"/><stop offset="100%" stop-color="#EF437A"/></linearGradient><linearGradient id="R" x1="57.827%" x2="45.85%" y1="50%" y2="123.869%"><stop offset="0%" stop-color="#F44881"/><stop offset="100%" stop-color="#EC454F"/></linearGradient><filter id="p" width="249.1%" height="340.9%" x="-74.6%" y="-120.4%" filterUnits="objectBoundingBox"><feOffset in="SourceAlpha" result="shadowOffsetOuter1"/><feGaussianBlur in="shadowOffsetOuter1" result="shadowBlurOuter1" stdDeviation="14"/><feColorMatrix in="shadowBlurOuter1" values="0 0 0 0 0.951002038 0 0 0 0 0.370524746 0 0 0 0 0.61045536 0 0 0 1 0"/></filter><filter id="e" width="394%" height="139.3%" x="-147%" y="-19.6%" filterUnits="objectBoundingBox"><feOffset in="SourceAlpha" result="shadowOffsetOuter1"/><feGaussianBlur in="shadowOffsetOuter1" result="shadowBlurOuter1" stdDeviation="12"/><feColorMatrix in="shadowBlurOuter1" values="0 0 0 0 0.951002038 0 0 0 0 0.370524746 0 0 0 0 0.61045536 0 0 0 1 0"/></filter><filter id="ab" width="588.9%" height="125.1%" x="-244.5%" y="-12.5%" filterUnits="objectBoundingBox"><feMorphology in="SourceAlpha" operator="dilate" radius=".941" result="shadowSpreadOuter1"/><feOffset in="shadowSpreadOuter1" result="shadowOffsetOuter1"/><feMorphology in="SourceAlpha" radius="1" result="shadowInner"/><feOffset in="shadowInner" result="shadowInner"/><feComposite in="shadowOffsetOuter1" in2="shadowInner" operator="out" result="shadowOffsetOuter1"/><feGaussianBlur in="shadowOffsetOuter1" result="shadowBlurOuter1" stdDeviation="3.5"/><feColorMatrix in="shadowBlurOuter1" values="0 0 0 0 1 0 0 0 0 0.0915967988 0 0 0 0 0.38564639 0 0 0 1 0"/></filter><filter id="s" width="390.9%" height="146%" x="-145.5%" y="-23%" filterUnits="objectBoundingBox"><feOffset in="SourceAlpha" result="shadowOffsetOuter1"/><feGaussianBlur in="shadowOffsetOuter1" result="shadowBlurOuter1" stdDeviation="9.5"/><feColorMatrix in="shadowBlurOuter1" values="0 0 0 0 0.951002038 0 0 0 0 0.370524746 0 0 0 0 0.61045536 0 0 0 1 0"/></filter><filter id="k" width="247%" height="352.5%" x="-73.5%" y="-126.3%" filterUnits="objectBoundingBox"><feOffset in="SourceAlpha" result="shadowOffsetOuter1"/><feGaussianBlur in="shadowOffsetOuter1" result="shadowBlurOuter1" stdDeviation="12"/><feColorMatrix in="shadowBlurOuter1" values="0 0 0 0 0.951002038 0 0 0 0 0.370524746 0 0 0 0 0.61045536 0 0 0 1 0"/></filter><filter id="b" width="138.7%" height="137.4%" x="-19.4%" y="-18.7%" filterUnits="objectBoundingBox"><feOffset in="SourceAlpha" result="shadowOffsetOuter1"/><feGaussianBlur in="shadowOffsetOuter1" result="shadowBlurOuter1" stdDeviation="12"/><feColorMatrix in="shadowBlurOuter1" values="0 0 0 0 0.951002038 0 0 0 0 0.370524746 0 0 0 0 0.61045536 0 0 0 1 0"/></filter><filter id="v" width="390.9%" height="146%" x="-145.5%" y="-23%" filterUnits="objectBoundingBox"><feOffset in="SourceAlpha" result="shadowOffsetOuter1"/><feGaussianBlur in="shadowOffsetOuter1" result="shadowBlurOuter1" stdDeviation="9.5"/><feColorMatrix in="shadowBlurOuter1" values="0 0 0 0 0.951002038 0 0 0 0 0.370524746 0 0 0 0 0.61045536 0 0 0 1 0"/></filter><filter id="ak" width="335.5%" height="142.3%" x="-117.7%" y="-21.2%" filterUnits="objectBoundingBox"><feGaussianBlur in="SourceGraphic" stdDeviation="8.55"/></filter><filter id="L" width="108.9%" height="102.4%" x="-4.4%" y="-.4%" filterUnits="objectBoundingBox"><feGaussianBlur in="SourceGraphic" stdDeviation="3.42"/></filter><filter id="h" width="394%" height="139.3%" x="-147%" y="-19.7%" filterUnits="objectBoundingBox"><feOffset in="SourceAlpha" result="shadowOffsetOuter1"/><feGaussianBlur in="shadowOffsetOuter1" result="shadowBlurOuter1" stdDeviation="12"/><feColorMatrix in="shadowBlurOuter1" values="0 0 0 0 0.951002038 0 0 0 0 0.370524746 0 0 0 0 0.61045536 0 0 0 1 0"/></filter><filter id="y" width="245.5%" height="349.9%" x="-72.7%" y="-124.9%" filterUnits="objectBoundingBox"><feOffset in="SourceAlpha" result="shadowOffsetOuter1"/><feGaussianBlur in="shadowOffsetOuter1" result="shadowBlurOuter1" stdDeviation="9.5"/><feColorMatrix in="shadowBlurOuter1" values="0 0 0 0 0.951002038 0 0 0 0 0.370524746 0 0 0 0 0.61045536 0 0 0 1 0"/></filter><filter id="ag" width="188%" height="188%" x="-44%" y="-44%" filterUnits="objectBoundingBox"><feMorphology in="SourceAlpha" operator="dilate" radius=".941" result="shadowSpreadOuter1"/><feOffset in="shadowSpreadOuter1" result="shadowOffsetOuter1"/><feMorphology in="SourceAlpha" radius="1" result="shadowInner"/><feOffset in="shadowInner" result="shadowInner"/><feComposite in="shadowOffsetOuter1" in2="shadowInner" operator="out" result="shadowOffsetOuter1"/><feGaussianBlur in="shadowOffsetOuter1" result="shadowBlurOuter1" stdDeviation="3.5"/><feColorMatrix in="shadowBlurOuter1" values="0 0 0 0 1 0 0 0 0 0.0915967988 0 0 0 0 0.38564639 0 0 0 1 0"/></filter><filter id="T" width="120.3%" height="110.1%" x="-10.1%" y="-4.3%" filterUnits="objectBoundingBox"><feMorphology in="SourceAlpha" operator="dilate" radius=".962" result="shadowSpreadOuter1"/><feOffset in="shadowSpreadOuter1" result="shadowOffsetOuter1"/><feMorphology in="SourceAlpha" radius="1" result="shadowInner"/><feOffset in="shadowInner" result="shadowInner"/><feComposite in="shadowOffsetOuter1" in2="shadowInner" operator="out" result="shadowOffsetOuter1"/><feGaussianBlur in="shadowOffsetOuter1" result="shadowBlurOuter1" stdDeviation="7.5"/><feColorMatrix in="shadowBlurOuter1" values="0 0 0 0 1 0 0 0 0 0.794626524 0 0 0 0 0.903282378 0 0 0 1 0"/></filter><filter id="O" width="124.6%" height="203.9%" x="-12.3%" y="-52%" filterUnits="objectBoundingBox"><feMorphology in="SourceAlpha" operator="dilate" radius=".941" result="shadowSpreadOuter1"/><feOffset in="shadowSpreadOuter1" result="shadowOffsetOuter1"/><feMorphology in="SourceAlpha" radius="1" result="shadowInner"/><feOffset in="shadowInner" result="shadowInner"/><feComposite in="shadowOffsetOuter1" in2="shadowInner" operator="out" result="shadowOffsetOuter1"/><feGaussianBlur in="shadowOffsetOuter1" result="shadowBlurOuter1" stdDeviation="3.5"/><feColorMatrix in="shadowBlurOuter1" values="0 0 0 0 1 0 0 0 0 0.0915967988 0 0 0 0 0.38564639 0 0 0 1 0"/></filter><filter id="C" width="118.8%" height="242.5%" x="-9.4%" y="-71.2%" filterUnits="objectBoundingBox"><feGaussianBlur in="SourceGraphic" stdDeviation="9.503"/></filter><filter id="S" width="312.1%" height="314.3%" x="-106.1%" y="-107.1%" filterUnits="objectBoundingBox"><feGaussianBlur in="SourceGraphic" stdDeviation="29.925"/></filter><path id="t" d="M0 135.432V11.405l19.593 11.124v112.903z"/><path id="ac" d="M57.285 154.755l4.699 91.676"/><path id="z" d="M0 11.475L19.456 22.81l19.73-11.335L19.456 0z"/><path id="w" d="M19.593 135.432V22.529l19.593-11.054v123.957z"/><path id="U" d="M35.77 10.813l184.433 94.775a13.167 13.167 0 017.118 10.816L237.446 264.9a13.167 13.167 0 01-9.47 13.542l-181.043 52.49c-6.984 2.025-14.288-1.995-16.313-8.98a13.11 13.11 0 01-.507-3.065L16.598 23.125c-.332-7.264 5.288-13.422 12.552-13.754a13.167 13.167 0 016.62 1.442z"/><path id="P" d="M120.867 159.03l94.742 22.38"/><path id="q" d="M0 16.495l27.968 18.381 28.362-18.38L27.968 0z"/><path id="l" d="M0 14.344l24.32 14.168 24.663-14.168L24.32 0z"/><path id="i" d="M24.491 197.505V28.162l24.492-13.818v183.161z"/><path id="c" d="M185.865 59.705l-13.457 6.5-18.59 8.981v36.509l32.051-15.48-.004-36.51zm-38.453 98.989V122.16l-18.287 8.75-52.218 24.963v36.877l70.505-34.057zM0 145.034l70.497 47.119v-36.87l-36.83-24.255-.011-.01-.016-.009c-.124-.083-.228-.197-.344-.296-.1-.09-.216-.164-.304-.26l-.008-.013c-.104-.11-.177-.24-.265-.36-.08-.116-.176-.217-.24-.335l-.004-.012c-.072-.127-.116-.275-.168-.416-.052-.125-.12-.243-.152-.374v-.004c-.04-.156-.048-.317-.064-.474-.016-.122-.048-.245-.048-.365V42.138l-18.586-12.43L0 20.723v124.311zM35.252.001L3.213 15.474l32.031 21.41L67.28 21.408 35.244 0h.008zm16.662 116.64l18.587-8.977V27.25l-13.457 6.5-18.59 8.981v80.412l13.46-6.503zm98.703-84.187L118.58 47.928l32.036 21.411 32.03-15.478-32.03-21.407zm-3.205 42.138l-18.59-12.426-13.458-8.994v36.509l18.587 12.422 13.46 8.998V74.592zm-73.714 75.443l46.988-22.472 23.488-11.228-32.01-21.397-36.858 17.804-33.591 16.226 31.983 21.067z"/><path id="f" d="M0 197.505V14.256l24.491 13.906v169.343z"/><radialGradient id="B" cx="52.101%" cy="30.594%" r="370.141%" fx="52.101%" fy="30.594%" gradientTransform="matrix(-.13183 0 0 -.25522 .59 .384)"><stop offset="0%"/><stop offset="100%" stop-opacity=".002"/></radialGradient><radialGradient id="V" cx="42.14%" cy="4.586%" r="127.484%" fx="42.14%" fy="4.586%" gradientTransform="matrix(.19658 .65122 -1.89301 .25208 .425 -.24)"><stop offset="0%" stop-color="#FFF"/><stop offset="100%" stop-color="#C42E6C" stop-opacity="0"/></radialGradient><radialGradient id="M" cx="4.698%" cy="3.926%" r="88.376%" fx="4.698%" fy="3.926%" gradientTransform="scale(.59065 1) rotate(81.785 .063 .058)"><stop offset="0%" stop-color="#5F658A"/><stop offset="100%" stop-color="#1B283E"/></radialGradient><radialGradient id="d" r="105.581%" fx="50%" fy="50%" gradientTransform="matrix(0 .9643 -1.93068 0 1.465 .018)"><stop offset="0%" stop-color="#FFF"/><stop offset="100%" stop-color="#C42E6C"/></radialGradient><radialGradient id="E" cx="4.698%" cy="3.926%" r="128.049%" fx="4.698%" fy="3.926%" gradientTransform="matrix(.05824 .68309 -.9983 .03985 .083 .006)"><stop offset="0%" stop-color="#31344A"/><stop offset="100%" stop-color="#1B283E"/></radialGradient><radialGradient id="F" cx="4.698%" cy="3.926%" r="88.389%" fx="4.698%" fy="3.926%" gradientTransform="matrix(.08438 .9896 -.58054 .14384 .066 -.014)"><stop offset="0%" stop-color="#5F658A"/><stop offset="100%" stop-color="#1B283E"/></radialGradient><circle id="ah" cx="13.005" cy="13.005" r="13.005"/></defs><g fill="none" fill-rule="evenodd"><path fill="url(#a)" d="M0 145.034v210.609h70.5v-163.49z" opacity=".558" transform="translate(24 22)"/><g transform="translate(24 22)"><use fill="#000" filter="url(#b)" xlink:href="#c"/><use fill="url(#d)" xlink:href="#c"/></g><g opacity=".482"><g transform="translate(225.78 90.4)"><use fill="#000" filter="url(#e)" xlink:href="#f"/><use fill="url(#g)" xlink:href="#f"/></g><g transform="translate(225.78 90.4)"><use fill="#000" filter="url(#h)" xlink:href="#i"/><use fill="url(#j)" xlink:href="#i"/></g><g transform="translate(225.78 90.4)"><use fill="#000" filter="url(#k)" xlink:href="#l"/><use fill="url(#m)" xlink:href="#l"/></g></g><g opacity=".147"><path fill="url(#n)" d="M0 241.073V16.394l28.165 18.559v206.12z" transform="translate(301.875 136.57)"/><path fill="url(#o)" d="M28.165 241.073V34.846L56.33 16.394v224.679z" transform="translate(301.875 136.57)"/><g transform="translate(301.875 136.57)"><use fill="#000" filter="url(#p)" xlink:href="#q"/><use fill="url(#r)" xlink:href="#q"/></g></g><g opacity=".065"><g transform="translate(290.76 78.43)"><use fill="#000" filter="url(#s)" xlink:href="#t"/><use fill="url(#u)" xlink:href="#t"/></g><g transform="translate(290.76 78.43)"><use fill="#000" filter="url(#v)" xlink:href="#w"/><use fill="url(#x)" xlink:href="#w"/></g><g transform="translate(290.76 78.43)"><use fill="#000" filter="url(#y)" xlink:href="#z"/><use fill="url(#A)" xlink:href="#z"/></g></g><g transform="translate(47.085 75.01)"><ellipse cx="152.907" cy="314.317" fill="url(#B)" filter="url(#C)" opacity=".668" rx="151.762" ry="20.007" transform="rotate(-12 152.907 314.317)"/><path stroke="url(#D)" stroke-linejoin="round" stroke-width="5.13" d="M196.198 313.394h-75.807"/><path fill="url(#E)" d="M17.515 15.102l15.907 4.397 171.467 92.693a13.167 13.167 0 016.873 10.66L221.873 266.8a13.167 13.167 0 01-9.285 13.514L44.51 331.705l-14.98 1.993c-7.208.959-13.829-4.108-14.788-11.316a13.505 13.505 0 01-.1-1.117L.855 28.412c-.342-7.264 5.269-13.43 12.533-13.772 1.391-.065 2.784.09 4.127.462z" transform="translate(.855)"/><path fill="#1B283E" d="M18.37 15.102l15.907 4.397 171.467 92.693a13.167 13.167 0 016.873 10.66L222.728 266.8a13.167 13.167 0 01-9.285 13.514L45.364 331.705l-14.98 1.993c-7.208.959-13.829-4.108-14.788-11.316a13.505 13.505 0 01-.1-1.117L1.71 28.412c-.342-7.264 5.269-13.43 12.533-13.772 1.391-.065 2.784.09 4.127.462z"/><path fill="url(#F)" d="M27.468 313.553c2.546-.403 8.017-.39 16.414.038l6.224 15.485-34.302 4.6c-.965-6.09-.529-10.728 1.307-13.916 2.754-4.78 6.539-5.602 10.357-6.207z" transform="scale(1 -1) rotate(9 4143.184 5.432)"/><path fill="url(#G)" stroke="url(#H)" stroke-width="1.282" d="M8.877 16.432c-2.221.948-4.147 2.716-5.779 5.324-1.554 2.484-2.06 6.837-1.468 13.035l32.938-4.57-9.82-19.176-15.871 5.387z" opacity=".905" transform="translate(.855)"/><path fill="url(#I)" d="M35.77 10.813l184.433 94.775a13.167 13.167 0 017.118 10.816L237.446 264.9a13.167 13.167 0 01-9.47 13.542l-181.043 52.49c-6.984 2.025-14.288-1.995-16.313-8.98a13.11 13.11 0 01-.507-3.065L16.598 23.125c-.332-7.264 5.288-13.422 12.552-13.754a13.167 13.167 0 016.62 1.442z" transform="translate(.855)"/><path fill="url(#J)" stroke="url(#K)" stroke-width="1.282" d="M35.476 11.383a12.526 12.526 0 00-6.296-1.372c-6.91.316-12.257 6.174-11.941 13.085l13.515 295.763c.045.987.207 1.966.482 2.916 1.926 6.644 8.874 10.469 15.518 8.542l181.044-52.49a12.526 12.526 0 009.009-12.882l-10.125-148.498a12.526 12.526 0 00-6.772-10.289L35.476 11.383z" opacity=".905" transform="translate(.855)"/><path fill="#0E151F" d="M47.889 20.205l172.782 88.697a13.167 13.167 0 017.124 10.817l9.497 139.146a13.167 13.167 0 01-9.474 13.544l-169.61 49.125c-6.985 2.023-14.287-2-16.31-8.984a13.167 13.167 0 01-.506-3.062L28.722 32.52c-.332-7.264 5.288-13.422 12.552-13.754a13.167 13.167 0 016.615 1.44z" filter="url(#L)" opacity=".35" transform="translate(.855)"/><path fill="url(#E)" d="M17.515 15.102l15.907 4.397 171.467 92.693a13.167 13.167 0 016.873 10.66L221.873 266.8a13.167 13.167 0 01-9.285 13.514L44.51 331.705l-14.98 1.993c-7.208.959-13.829-4.108-14.788-11.316a13.505 13.505 0 01-.1-1.117L.855 28.412c-.342-7.264 5.269-13.43 12.533-13.772 1.391-.065 2.784.09 4.127.462z" transform="translate(41.895)"/><path fill="#1B283E" d="M59.41 15.102l15.907 4.397 171.467 92.693a13.167 13.167 0 016.873 10.66L263.768 266.8a13.167 13.167 0 01-9.285 13.514L86.404 331.705l-14.98 1.993c-7.208.959-13.829-4.108-14.788-11.316a13.505 13.505 0 01-.1-1.117L42.75 28.412c-.342-7.264 5.269-13.43 12.533-13.772 1.391-.065 2.784.09 4.127.462z"/><path fill="url(#G)" stroke="url(#H)" stroke-width="1.282" d="M8.877 16.432c-2.221.948-4.147 2.716-5.779 5.324-1.554 2.484-2.06 6.837-1.468 13.035l32.938-4.57-9.82-19.176-15.871 5.387z" opacity=".905" transform="translate(41.895)"/><path fill="url(#M)" d="M27.417 313.41c2.546-.403 8.043-.355 16.49.145l6.148 15.378-34.319 4.714c-.82-6.631-.38-11.308 1.324-14.03 2.555-4.082 6.539-5.602 10.357-6.207z" transform="scale(1 -1) rotate(9 4162.75 266.163)"/><path fill="url(#I)" d="M35.77 10.813l184.433 94.775a13.167 13.167 0 017.118 10.816L237.446 264.9a13.167 13.167 0 01-9.47 13.542l-181.043 52.49c-6.984 2.025-14.288-1.995-16.313-8.98a13.11 13.11 0 01-.507-3.065L16.598 23.125c-.332-7.264 5.288-13.422 12.552-13.754a13.167 13.167 0 016.62 1.442z" transform="translate(41.895)"/><g transform="translate(57.456)"><path fill="url(#N)" d="M20.208 10.813l184.434 94.775a13.167 13.167 0 017.118 10.816L221.885 264.9a13.167 13.167 0 01-9.47 13.542l-181.043 52.49c-6.984 2.025-14.288-1.995-16.313-8.98a13.11 13.11 0 01-.507-3.065L1.037 23.125C.705 15.861 6.325 9.703 13.59 9.371a13.167 13.167 0 016.62 1.442z" opacity=".705"/><g stroke-linecap="round" stroke-linejoin="round"><use fill="#000" filter="url(#O)" xlink:href="#P"/><use stroke="url(#Q)" stroke-width="1.881" xlink:href="#P"/></g><ellipse cx="111.406" cy="159.03" fill="url(#R)" filter="url(#S)" rx="42.322" ry="41.895" style="mix-blend-mode:hard-light"/></g><g style="mix-blend-mode:overlay" transform="translate(41.895)"><use fill="#000" filter="url(#T)" xlink:href="#U"/><use stroke="url(#V)" stroke-width="1.924" xlink:href="#U"/></g><g><path stroke="#354D71" stroke-width="4.275" d="M46.364 138.26c-27.36 0 4.225 59.587-7.5 74.635-17.138 21.992-53.133-28.147-21.764-27.146"/><path stroke="url(#W)" stroke-width="4.275" d="M42.089 5.735c-27.36 0 4.225 59.587-7.5 74.635-17.138 21.992-53.133-28.147-21.764-27.146" transform="translate(4.275 132.525)"/><path fill="url(#X)" d="M6.126 3.17c-2.155 2.36-1.84 3.535 0 5.55 1.227 1.343 3.613 1.745 7.157 1.206.911-1.458 1.366-2.915 1.366-4.373 0-1.458-.455-2.916-1.366-4.374-3.334-.245-5.72.419-7.157 1.991z" transform="translate(41.82 132.793)"/><path fill="url(#Y)" d="M1.885 1.18c-2.328 2.358-1.988 6.732 0 8.746 1.325 1.343 4.2 1.343 8.629 0 .983-1.458 1.474-2.915 1.474-4.373 0-1.458-.491-2.916-1.474-4.374-4.202-1.572-7.078-1.572-8.63 0z" transform="translate(41.82 132.793)"/><path fill="url(#Z)" d="M3.676 2.114c-1.294 1.572-1.105 2.356 0 3.7.736.894 2.167 1.163 4.294.803.546-.971.82-1.943.82-2.915S8.516 1.758 7.97.786c-2-.163-3.432.28-4.294 1.328z" transform="translate(11.97 182.115)"/><path fill="url(#aa)" d="M1.13.786c-1.396 1.573-1.192 4.488 0 5.831.796.896 2.522.896 5.178 0 .59-.971.885-1.943.885-2.915S6.898 1.758 6.308.786c-2.52-1.048-4.246-1.048-5.177 0z" transform="translate(11.97 182.115)"/></g><g stroke-linecap="round" stroke-linejoin="round"><use fill="#000" filter="url(#ab)" xlink:href="#ac"/><use stroke="url(#ad)" stroke-width="1.881" xlink:href="#ac"/></g></g><path stroke="url(#ae)" stroke-linejoin="round" stroke-width="5.13" d="M161.683 80.646L15.544 15.903" transform="rotate(58 -75.17 313.397)"/><g transform="scale(-1 1) rotate(-66 173.782 393.865)"><circle cx="7.283" cy="7.283" r="7.283" fill="url(#af)"/><path fill="#FFF" fill-opacity=".2" d="M6.936 0c2.27 0 4.285 1.09 5.55 2.776a6.936 6.936 0 00-9.71 9.71A6.936 6.936 0 016.935 0z"/></g><g transform="scale(-1 1) rotate(-66 63.009 306.812)"><circle cx="13.005" cy="13.005" r="13.005" fill="url(#af)"/><g stroke-linecap="round" stroke-linejoin="round"><use fill="#000" filter="url(#ag)" xlink:href="#ah"/><use stroke="url(#ai)" stroke-width="1.881" xlink:href="#ah"/></g><path fill="#FFF" fill-opacity=".2" d="M10.403 0c3.403 0 6.424 1.633 8.322 4.159a10.363 10.363 0 00-6.24-2.078C6.737 2.08 2.08 6.738 2.08 12.484c0 2.341.773 4.502 2.079 6.24A10.385 10.385 0 010 10.405C0 4.657 4.658 0 10.403 0z"/></g><path fill="url(#aj)" d="M196.929 242.82l4.48-8.4 17.308 118.672-7.978 2.55z" filter="url(#ak)" opacity=".667" style="mix-blend-mode:overlay" transform="translate(24 22)"/></g></svg>